<?xml version="1.0" encoding="UTF-8"?>
<svg version="1.1" xmlns="http://www.w3.org/2000/svg" width="180" height="180">
<path d="M0 0 C59.4 0 118.8 0 180 0 C180 59.4 180 118.8 180 180 C120.6 180 61.2 180 0 180 C0 120.6 0 61.2 0 0 Z " fill="#383737" transform="translate(0,0)"/>
<path d="M0 0 C1.0209375 0.10828125 2.041875 0.2165625 3.09375 0.328125 C5.5 0.75 5.5 0.75 6.5 1.75 C7.86622129 2.09888484 9.24368542 2.40421345 10.625 2.6875 C14.65187031 3.55591452 18.58939621 4.4464654 22.5 5.75 C22.995 6.74 22.995 6.74 23.5 7.75 C25.8140622 8.48075648 28.14828869 9.15138258 30.5 9.75 C30.5 10.74 30.5 11.73 30.5 12.75 C31.62535156 12.69779297 31.62535156 12.69779297 32.7734375 12.64453125 C39.96081568 12.45443687 45.75099272 13.33988111 52.5 15.75 C51.77085557 24.36811441 50.86262575 32.96449523 49.88037109 41.55688477 C49.70996836 43.06200033 49.5433075 44.5675442 49.38037109 46.07348633 C48.53883073 53.84044853 47.61649733 61.299577 45.11572266 68.74438477 C44.30060289 71.39950327 44.1656282 73.92071986 44.125 76.6875 C43.8072337 81.47427745 43.8072337 81.47427745 41.0625 83.9375 C38.5 84.75 38.5 84.75 36.5 84.75 C36.5 85.41 36.5 86.07 36.5 86.75 C33.44879981 90.60414761 29.14084567 91.71870096 24.5 92.75 C24.5 93.41 24.5 94.07 24.5 94.75 C23.015 95.245 23.015 95.245 21.5 95.75 C20.71625 96.53375 19.9325 97.3175 19.125 98.125 C16.67018035 100.57981965 14.4975108 102.05909647 11.5 103.75 C10.778125 104.306875 10.05625 104.86375 9.3125 105.4375 C7.5 106.75 7.5 106.75 5.5 106.75 C5.005 108.235 5.005 108.235 4.5 109.75 C3.18 109.75 1.86 109.75 0.5 109.75 C0.005 111.235 0.005 111.235 -0.5 112.75 C-1.16 112.75 -1.82 112.75 -2.5 112.75 C-3.16 114.07 -3.82 115.39 -4.5 116.75 C-7.6875 117.0625 -7.6875 117.0625 -11.5 116.75 C-14.0625 114.5625 -14.0625 114.5625 -16.5 111.75 C-20.02017565 108.66984631 -23.48148713 106.11989221 -27.5 103.75 C-29.98589859 101.87041814 -32.24289491 100.02424543 -34.375 97.75 C-36.64248156 95.61589971 -39.04133034 94.2959348 -41.76953125 92.82421875 C-44.38450678 91.20092694 -46.33136515 88.91863485 -48.5 86.75 C-50.15583225 86.05686092 -51.82110979 85.38525576 -53.5 84.75 C-55.62781524 81.55827715 -55.76294521 80.6140429 -55.84375 76.93359375 C-55.88822266 75.54043945 -55.88822266 75.54043945 -55.93359375 74.11914062 C-55.97795302 72.16080929 -56.0222235 70.20247595 -56.06640625 68.24414062 C-56.09605469 67.31666016 -56.12570313 66.38917969 -56.15625 65.43359375 C-56.17494141 64.58337646 -56.19363281 63.73315918 -56.21289062 62.85717773 C-56.31301444 60.53353908 -56.31301444 60.53353908 -58.5 58.75 C-58.94494782 55.79933294 -59.27726319 52.91342425 -59.53515625 49.9453125 C-59.61873886 49.06978729 -59.70232147 48.19426208 -59.78843689 47.29220581 C-60.05486869 44.48718559 -60.30924244 41.68123779 -60.5625 38.875 C-60.82133355 36.07613695 -61.08270117 33.2775438 -61.34727478 30.47921753 C-61.51136532 28.7366718 -61.67178806 26.9937759 -61.82814026 25.2505188 C-61.90169235 24.45644623 -61.97524445 23.66237366 -62.05102539 22.84423828 C-62.11383194 22.14855743 -62.17663849 21.45287659 -62.24134827 20.7361145 C-62.50857129 18.68418342 -62.95991426 16.74595462 -63.5 14.75 C-61.52 14.75 -59.54 14.75 -57.5 14.75 C-57.5 14.09 -57.5 13.43 -57.5 12.75 C-56.49839844 12.55664062 -55.49679688 12.36328125 -54.46484375 12.1640625 C-53.12236492 11.90119951 -51.77991873 11.63816974 -50.4375 11.375 C-49.78072266 11.24867187 -49.12394531 11.12234375 -48.44726562 10.9921875 C-44.05215035 10.12615493 -39.79213829 9.03373447 -35.5 7.75 C-35.5 7.09 -35.5 6.43 -35.5 5.75 C-34.66190796 5.63724731 -34.66190796 5.63724731 -33.80688477 5.5222168 C-31.22411927 5.16954895 -28.64339481 4.80359729 -26.0625 4.4375 C-25.18400391 4.31955078 -24.30550781 4.20160156 -23.40039062 4.08007812 C-18.99581643 3.44620951 -14.93686647 2.6455079 -10.74609375 1.12890625 C-6.96810017 -0.2152641 -4.03156278 -0.47796878 0 0 Z " fill="#F14C4C" transform="translate(92.5,33.25)"/>
<path d="M0 0 C6.75 0.875 6.75 0.875 9 2 C8.27085557 10.61811441 7.36262575 19.21449523 6.38037109 27.80688477 C6.20996836 29.31200033 6.0433075 30.8175442 5.88037109 32.32348633 C5.03883073 40.09044853 4.11649733 47.549577 1.61572266 54.99438477 C0.80060289 57.64950327 0.6656282 60.17071986 0.625 62.9375 C0.3072337 67.72427745 0.3072337 67.72427745 -2.4375 70.1875 C-5 71 -5 71 -7 71 C-7 71.66 -7 72.32 -7 73 C-10.05120019 76.85414761 -14.35915433 77.96870096 -19 79 C-19 79.66 -19 80.32 -19 81 C-19.99 81.33 -20.98 81.66 -22 82 C-22.78375 82.78375 -23.5675 83.5675 -24.375 84.375 C-26.82981965 86.82981965 -29.0024892 88.30909647 -32 90 C-32.721875 90.556875 -33.44375 91.11375 -34.1875 91.6875 C-36 93 -36 93 -38 93 C-38.33 93.99 -38.66 94.98 -39 96 C-40.32 96 -41.64 96 -43 96 C-43.33 96.99 -43.66 97.98 -44 99 C-44.66 99 -45.32 99 -46 99 C-46.66 100.32 -47.32 101.64 -48 103 C-51.1875 103.3125 -51.1875 103.3125 -55 103 C-57.63016161 100.8272578 -59.47336894 99.05326212 -61 96 C-58.625 96.25 -58.625 96.25 -56 97 C-54.6875 99.0625 -54.6875 99.0625 -54 101 C-52.68 101 -51.36 101 -50 101 C-50.33 100.01 -50.66 99.02 -51 98 C-51.08961953 95.80724981 -51.11758191 93.61181342 -51.11352539 91.41723633 C-51.11367142 90.75355545 -51.11381744 90.08987457 -51.1139679 89.40608215 C-51.11327182 87.21469848 -51.1054937 85.02340005 -51.09765625 82.83203125 C-51.09579099 81.31174262 -51.09436759 79.79145339 -51.09336853 78.27116394 C-51.08955188 74.27135557 -51.07972885 70.27158356 -51.06866455 66.27178955 C-51.05843213 62.18966158 -51.05386698 58.10752773 -51.04882812 54.02539062 C-51.03810583 46.01691041 -51.02103961 38.00845973 -51 30 C-49.68 29.67 -48.36 29.34 -47 29 C-47 28.34 -47 27.68 -47 27 C-46.07316406 26.73445313 -45.14632812 26.46890625 -44.19140625 26.1953125 C-42.99386719 25.84210938 -41.79632813 25.48890625 -40.5625 25.125 C-39.36753906 24.77695313 -38.17257813 24.42890625 -36.94140625 24.0703125 C-33.88308969 23.3391709 -33.88308969 23.3391709 -33 21 C-31.02 21 -29.04 21 -27 21 C-27 20.34 -27 19.68 -27 19 C-25.35 18.67 -23.7 18.34 -22 18 C-21.67 16.68 -21.34 15.36 -21 14 C-19.35 14 -17.7 14 -16 14 C-16 13.01 -16 12.02 -16 11 C-14.01432292 10.77213542 -12.02864583 10.54427083 -10.04296875 10.31640625 C-7.80603607 10.02829265 -7.80603607 10.02829265 -5 9 C-4.67 8.01 -4.34 7.02 -4 6 C-1.98177083 5.83723958 0.03645833 5.67447917 2.0546875 5.51171875 C4.39519216 5.12606964 4.39519216 5.12606964 6 2 C4.02 2 2.04 2 0 2 C0 1.34 0 0.68 0 0 Z " fill="#C13F40" transform="translate(136,47)"/>
<path d="M0 0 C1.0209375 0.10828125 2.041875 0.2165625 3.09375 0.328125 C5.5 0.75 5.5 0.75 6.5 1.75 C7.86622129 2.09888484 9.24368542 2.40421345 10.625 2.6875 C14.65187031 3.55591452 18.58939621 4.4464654 22.5 5.75 C22.995 6.74 22.995 6.74 23.5 7.75 C25.8140622 8.48075648 28.14828869 9.15138258 30.5 9.75 C30.5 10.74 30.5 11.73 30.5 12.75 C34.46 12.75 38.42 12.75 42.5 12.75 C42.995 14.235 42.995 14.235 43.5 15.75 C45.48 15.75 47.46 15.75 49.5 15.75 C49 17.6875 49 17.6875 47.5 19.75 C45.48678069 20.00977023 43.47028208 20.26081362 41.4453125 20.40234375 C39.2579209 20.59779424 39.2579209 20.59779424 37.5 22.8125 C35.11930557 25.11879773 34.44983753 25.01678236 31.25 25 C30.0125 24.9175 28.775 24.835 27.5 24.75 C27.5 25.74 27.5 26.73 27.5 27.75 C26.695625 27.87375 25.89125 27.9975 25.0625 28.125 C24.216875 28.33125 23.37125 28.5375 22.5 28.75 C22.17 29.41 21.84 30.07 21.5 30.75 C19.47456444 31.00719817 17.44649776 31.25842122 15.41015625 31.40625 C13.26477844 31.60476212 13.26477844 31.60476212 11.5 33.75 C10.18 33.75 8.86 33.75 7.5 33.75 C7.5 34.74 7.5 35.73 7.5 36.75 C4.43489699 38.18676704 1.71471226 38.91109931 -1.625 39.25 C-5.55416359 39.46568738 -5.55416359 39.46568738 -8.5 41.75 C-8.83 40.76 -9.16 39.77 -9.5 38.75 C-10.28375 38.6675 -11.0675 38.585 -11.875 38.5 C-16.61597601 37.51910841 -21.23642798 36.07850449 -25.5 33.75 C-25.83 32.76 -26.16 31.77 -26.5 30.75 C-27.345625 30.811875 -28.19125 30.87375 -29.0625 30.9375 C-33.32337919 30.70508841 -35.73484105 29.74331944 -39.5 27.75 C-39.83 26.76 -40.16 25.77 -40.5 24.75 C-42.81 24.42 -45.12 24.09 -47.5 23.75 C-47.5 23.09 -47.5 22.43 -47.5 21.75 C-48.469375 21.6675 -49.43875 21.585 -50.4375 21.5 C-55.17119101 20.8500875 -59.23984407 18.82694677 -63.5 16.75 C-63.5 16.09 -63.5 15.43 -63.5 14.75 C-61.52 14.75 -59.54 14.75 -57.5 14.75 C-57.5 14.09 -57.5 13.43 -57.5 12.75 C-56.49839844 12.55664062 -55.49679688 12.36328125 -54.46484375 12.1640625 C-53.12236492 11.90119951 -51.77991873 11.63816974 -50.4375 11.375 C-49.78072266 11.24867187 -49.12394531 11.12234375 -48.44726562 10.9921875 C-44.05215035 10.12615493 -39.79213829 9.03373447 -35.5 7.75 C-35.5 7.09 -35.5 6.43 -35.5 5.75 C-34.66190796 5.63724731 -34.66190796 5.63724731 -33.80688477 5.5222168 C-31.22411927 5.16954895 -28.64339481 4.80359729 -26.0625 4.4375 C-25.18400391 4.31955078 -24.30550781 4.20160156 -23.40039062 4.08007812 C-18.99581643 3.44620951 -14.93686647 2.6455079 -10.74609375 1.12890625 C-6.96810017 -0.2152641 -4.03156278 -0.47796878 0 0 Z " fill="#FD6169" transform="translate(92.5,33.25)"/>
<path d="M0 0 C0.66 0 1.32 0 2 0 C2.33 23.43 2.66 46.86 3 71 C1.68 71 0.36 71 -1 71 C-0.67 47.57 -0.34 24.14 0 0 Z " fill="#E44747" transform="translate(83,77)"/>
<path d="M0 0 C6.75 0.875 6.75 0.875 9 2 C8.45118943 8.35219042 7.83488387 14.67873638 7 21 C6.01 21 5.02 21 4 21 C4 26.28 4 31.56 4 37 C3.01 36.67 2.02 36.34 1 36 C0.94576362 34.08364783 0.90710037 32.16685075 0.875 30.25 C0.85179687 29.18265625 0.82859375 28.1153125 0.8046875 27.015625 C1.00171263 23.97355697 1.62018938 22.63370697 3 20 C3.41652947 17.25188024 3.41652947 17.25188024 3.5625 14.375 C3.90277778 9.19444444 3.90277778 9.19444444 5 7 C1.75016865 8.08784968 1.75016865 8.08784968 -1 10 C-2.99958364 10.04080783 -5.00045254 10.04254356 -7 10 C-6.34 9.67 -5.68 9.34 -5 9 C-4.67 8.01 -4.34 7.02 -4 6 C-0.97265625 5.75585938 -0.97265625 5.75585938 2.0546875 5.51171875 C4.39519216 5.12606964 4.39519216 5.12606964 6 2 C4.02 2 2.04 2 0 2 C0 1.34 0 0.68 0 0 Z " fill="#CF4244" transform="translate(136,47)"/>
<path d="M0 0 C0.66 0 1.32 0 2 0 C2.21580471 5.93462961 1.80146213 11.67394211 1.125 17.5625 C1.04652832 18.27011475 0.96805664 18.97772949 0.88720703 19.70678711 C0.29725827 24.59905893 -0.72557519 29.2396485 -2 34 C-2.33 34 -2.66 34 -3 34 C-3 29.05 -3 24.1 -3 19 C-2.01 18.67 -1.02 18.34 0 18 C0 12.06 0 6.12 0 0 Z " fill="#8F3D3E" transform="translate(140,68)"/>
<path d="M0 0 C1.21816406 0.03480469 1.21816406 0.03480469 2.4609375 0.0703125 C3.68683594 0.09738281 3.68683594 0.09738281 4.9375 0.125 C5.87722656 0.15980469 5.87722656 0.15980469 6.8359375 0.1953125 C6.8359375 1.1853125 6.8359375 2.1753125 6.8359375 3.1953125 C3.8659375 3.1953125 0.8959375 3.1953125 -2.1640625 3.1953125 C-2.4940625 4.1853125 -2.8240625 5.1753125 -3.1640625 6.1953125 C-6.4640625 6.1953125 -9.7640625 6.1953125 -13.1640625 6.1953125 C-13.1640625 5.5353125 -13.1640625 4.8753125 -13.1640625 4.1953125 C-12.53757812 4.07414062 -11.91109375 3.95296875 -11.265625 3.828125 C-10.44835937 3.66054688 -9.63109375 3.49296875 -8.7890625 3.3203125 C-7.97695312 3.15789063 -7.16484375 2.99546875 -6.328125 2.828125 C-3.58400716 2.02569343 -2.87269404 0.25926842 0 0 Z " fill="#263232" transform="translate(79.1640625,29.8046875)"/>
<path d="M0 0 C0.33 0.33 0.66 0.66 1 1 C2.36622129 1.34888484 3.74368542 1.65421345 5.125 1.9375 C9.1466169 2.79330008 13.06024879 3.82645709 17 5 C17 5.33 17 5.66 17 6 C13.7 5.67 10.4 5.34 7 5 C7 4.34 7 3.68 7 3 C4.03 3 1.06 3 -2 3 C-2 2.34 -2 1.68 -2 1 C-6.62 1 -11.24 1 -16 1 C-16 1.66 -16 2.32 -16 3 C-17.65 3 -19.3 3 -21 3 C-20 1 -20 1 -16.6875 -0.1875 C-11.14728128 -1.47685999 -5.57474573 -0.88303972 0 0 Z " fill="#A05459" transform="translate(98,34)"/>
<path d="M0 0 C0.33 0 0.66 0 1 0 C3.38297872 20.53191489 3.38297872 20.53191489 3 30 C2.34 29.67 1.68 29.34 1 29 C-0.32782546 22.91204555 -0.11497177 16.76627757 -0.0625 10.5625 C-0.05798828 9.54478516 -0.05347656 8.52707031 -0.04882812 7.47851562 C-0.03712437 4.98561491 -0.02072848 2.49283926 0 0 Z " fill="#6A3D3D" transform="translate(30,52)"/>
<path d="M0 0 C4.62 0.66 9.24 1.32 14 2 C14 2.66 14 3.32 14 4 C16.31 4.33 18.62 4.66 21 5 C20.67 5.66 20.34 6.32 20 7 C16.04 6.67 12.08 6.34 8 6 C8 5.01 8 4.02 8 3 C6.865625 2.87625 5.73125 2.7525 4.5625 2.625 C3.386875 2.41875 2.21125 2.2125 1 2 C0.67 1.34 0.34 0.68 0 0 Z " fill="#944E53" transform="translate(115,40)"/>
<path d="M0 0 C2.31 0.33 4.62 0.66 7 1 C6.67 2.98 6.34 4.96 6 7 C5.030625 7.309375 4.06125 7.61875 3.0625 7.9375 C0.15934208 8.69523342 0.15934208 8.69523342 -1 10 C-2.99958364 10.04080783 -5.00045254 10.04254356 -7 10 C-6.34 9.67 -5.68 9.34 -5 9 C-4.67 8.01 -4.34 7.02 -4 6 C-0.97265625 5.75585938 -0.97265625 5.75585938 2.0546875 5.51171875 C4.39519216 5.12606964 4.39519216 5.12606964 6 2 C4.02 2 2.04 2 0 2 C0 1.34 0 0.68 0 0 Z " fill="#C84E52" transform="translate(136,47)"/>
<path d="M0 0 C2.375 0.25 2.375 0.25 5 1 C6.3125 3.0625 6.3125 3.0625 7 5 C9.97065509 4.65772428 9.97065509 4.65772428 13 4 C13.33 3.34 13.66 2.68 14 2 C14.99 2.33 15.98 2.66 17 3 C16.34 3 15.68 3 15 3 C14.34 4.32 13.68 5.64 13 7 C9.8125 7.3125 9.8125 7.3125 6 7 C3.36983839 4.8272578 1.52663106 3.05326212 0 0 Z " fill="#9B4040" transform="translate(75,143)"/>
<path d="M0 0 C0 0.99 0 1.98 0 3 C-1.2065625 3.4640625 -1.2065625 3.4640625 -2.4375 3.9375 C-4.89080405 4.76335345 -4.89080405 4.76335345 -6 6 C-8.65463121 6.45459858 -11.32189138 6.70243238 -14 7 C-13.67 6.01 -13.34 5.02 -13 4 C-11.35 4 -9.7 4 -8 4 C-8 3.01 -8 2.02 -8 1 C-5.36 0.67 -2.72 0.34 0 0 Z " fill="#D94D52" transform="translate(128,57)"/>
<path d="M0 0 C0.33 0.99 0.66 1.98 1 3 C-2.63 3 -6.26 3 -10 3 C-10.33 3.99 -10.66 4.98 -11 6 C-14.3 6 -17.6 6 -21 6 C-21 5.67 -21 5.34 -21 5 C-19.02 5 -17.04 5 -15 5 C-15 4.34 -15 3.68 -15 3 C-7.575 1.515 -7.575 1.515 0 0 Z " fill="#AB5459" transform="translate(50,43)"/>
<path d="M0 0 C0 0.66 0 1.32 0 2 C-2.97 2 -5.94 2 -9 2 C-9.33 2.99 -9.66 3.98 -10 5 C-11.65 5 -13.3 5 -15 5 C-15 4.01 -15 3.02 -15 2 C-9.87080814 -0.10428384 -5.4389165 -0.21755666 0 0 Z " fill="#273232" transform="translate(65,36)"/>
<path d="M0 0 C3.23891184 1.04788324 5.57636566 2.3579313 8.125 4.5625 C10.80604196 7.14217763 10.80604196 7.14217763 14 8 C15.1875 10.5625 15.1875 10.5625 16 13 C15.48050781 12.60167969 14.96101563 12.20335938 14.42578125 11.79296875 C11.40435808 9.49758072 8.44408291 7.26644975 5.1875 5.3125 C3.09952479 4.05971488 1.5870126 2.83759353 0 1 C0 0.67 0 0.34 0 0 Z " fill="#984343" transform="translate(38,115)"/>
<path d="M0 0 C0.66 0 1.32 0 2 0 C1.45118943 6.35219042 0.83488387 12.67873638 0 19 C-0.33 19 -0.66 19 -1 19 C-1.02697137 16.39576408 -1.04682489 13.79180756 -1.0625 11.1875 C-1.07087891 10.44951172 -1.07925781 9.71152344 -1.08789062 8.95117188 C-1.10259828 5.70077932 -1.03531702 3.10595105 0 0 Z " fill="#AB4143" transform="translate(143,49)"/>
<path d="M0 0 C2.97 0 5.94 0 9 0 C3.89062921 2.5546854 -0.09240504 4.21149916 -5.8125 4.625 C-6.78832031 4.69976562 -7.76414063 4.77453125 -8.76953125 4.8515625 C-9.87361328 4.92503906 -9.87361328 4.92503906 -11 5 C-10.67 4.34 -10.34 3.68 -10 3 C-7.67711188 2.60689586 -5.38154824 2.49250305 -3.03125 2.34375 C-2.02578125 2.17359375 -2.02578125 2.17359375 -1 2 C-0.67 1.34 -0.34 0.68 0 0 Z " fill="#5E4142" transform="translate(46,41)"/>
<path d="M0 0 C-1 1 -1 1 -2.84765625 1.09765625 C-4.8984375 1.06510417 -6.94921875 1.03255208 -9 1 C-9 1.66 -9 2.32 -9 3 C-12.3 3.33 -15.6 3.66 -19 4 C-15 2 -15 2 -13 2 C-13 1.34 -13 0.68 -13 0 C-11.58456585 -0.19658808 -10.16755969 -0.38187546 -8.75 -0.5625 C-7.96109375 -0.66691406 -7.1721875 -0.77132812 -6.359375 -0.87890625 C-3.99467126 -1.00027349 -2.2488963 -0.69633257 0 0 Z " fill="#A75459" transform="translate(70,39)"/>
<path d="M0 0 C1.99954746 -0.04254356 4.00041636 -0.04080783 6 0 C6.33 0.33 6.66 0.66 7 1 C6.9622362 2.83590188 6.84545801 4.67051617 6.6875 6.5 C6.60886719 7.5003125 6.53023437 8.500625 6.44921875 9.53125 C6.22685547 10.75328125 6.22685547 10.75328125 6 12 C5.01 12.495 5.01 12.495 4 13 C4.33 9.37 4.66 5.74 5 2 C3.35 1.67 1.7 1.34 0 1 C0 0.67 0 0.34 0 0 Z " fill="#5E3C3C" transform="translate(140,47)"/>
<path d="M0 0 C0.556875 0.226875 1.11375 0.45375 1.6875 0.6875 C0.718125 1.30625 -0.25125 1.925 -1.25 2.5625 C-4.34085362 4.34428846 -4.34085362 4.34428846 -5.3125 6.6875 C-8.375 7.3125 -8.375 7.3125 -11.3125 7.6875 C-10.9825 6.6975 -10.6525 5.7075 -10.3125 4.6875 C-9.3225 4.6875 -8.3325 4.6875 -7.3125 4.6875 C-7.3125 4.0275 -7.3125 3.3675 -7.3125 2.6875 C-3.15982824 -0.42700382 -3.15982824 -0.42700382 0 0 Z " fill="#723B3B" transform="translate(124.3125,123.3125)"/>
<path d="M0 0 C2.05078125 0.03255208 4.1015625 0.06510417 6.15234375 0.09765625 C3.15234375 2.09765625 3.15234375 2.09765625 1.15234375 2.09765625 C1.15234375 2.75765625 1.15234375 3.41765625 1.15234375 4.09765625 C-3.30265625 4.59265625 -3.30265625 4.59265625 -7.84765625 5.09765625 C-7.84765625 4.43765625 -7.84765625 3.77765625 -7.84765625 3.09765625 C-7.04328125 2.78828125 -6.23890625 2.47890625 -5.41015625 2.16015625 C-0.22964029 0.01213744 -0.22964029 0.01213744 0 0 Z " fill="#E55258" transform="translate(107.84765625,63.90234375)"/>
<path d="M0 0 C4.29 0 8.58 0 13 0 C13 0.66 13 1.32 13 2 C11.948125 1.979375 10.89625 1.95875 9.8125 1.9375 C6.67295096 1.98896802 4.03116604 2.26517187 1 3 C0.67 2.01 0.34 1.02 0 0 Z " fill="#F6717A" transform="translate(82,35)"/>
<path d="M0 0 C0.33 0.99 0.66 1.98 1 3 C-0.26691507 3.67408308 -1.53870749 4.33900497 -2.8125 5 C-3.52019531 5.37125 -4.22789063 5.7425 -4.95703125 6.125 C-7 7 -7 7 -10 7 C-7.0094833 3.66442368 -4.06815373 1.84916079 0 0 Z " fill="#6A3A39" transform="translate(112,131)"/>
<path d="M0 0 C-1 3 -1 3 -2.92578125 3.984375 C-3.71339844 4.23703125 -4.50101563 4.4896875 -5.3125 4.75 C-6.09238281 5.01296875 -6.87226562 5.2759375 -7.67578125 5.546875 C-10.16921091 6.03298902 -11.6181897 5.80665429 -14 5 C-12.04350603 4.16235732 -10.08474444 3.33000941 -8.125 2.5 C-6.48917969 1.80390625 -6.48917969 1.80390625 -4.8203125 1.09375 C-2 0 -2 0 0 0 Z " fill="#D2484B" transform="translate(103,68)"/>
<path d="M0 0 C1.98 0 3.96 0 6 0 C6.33 0.99 6.66 1.98 7 3 C4.36 3 1.72 3 -1 3 C-0.67 2.01 -0.34 1.02 0 0 Z " fill="#243130" transform="translate(102,33)"/>
<path d="M0 0 C2.64 0.66 5.28 1.32 8 2 C8.33 3.65 8.66 5.3 9 7 C5.18315774 5.44499019 2.80804268 2.96404505 0 0 Z " fill="#A04343" transform="translate(60,132)"/>
<path d="M0 0 C0.99 0 1.98 0 3 0 C3 2.31 3 4.62 3 7 C2.01 7 1.02 7 0 7 C0 4.69 0 2.38 0 0 Z " fill="#213535" transform="translate(33,108)"/>
<path d="M0 0 C2 2 2 2 2.3125 4.5 C2.209375 5.325 2.10625 6.15 2 7 C1.01 7.66 0.02 8.32 -1 9 C-1.09765625 2.84765625 -1.09765625 2.84765625 -1 1 C-0.67 0.67 -0.34 0.34 0 0 Z " fill="#233535" transform="translate(145,61)"/>
<path d="M0 0 C2.31 0 4.62 0 7 0 C7 0.99 7 1.98 7 3 C4.69 3 2.38 3 0 3 C0 2.01 0 1.02 0 0 Z " fill="#223130" transform="translate(91,30)"/>
<path d="M0 0 C0.33 0.66 0.66 1.32 1 2 C-1.46153846 5.81538462 -1.46153846 5.81538462 -4.1875 6.75 C-4.785625 6.8325 -5.38375 6.915 -6 7 C-5.67 6.01 -5.34 5.02 -5 4 C-4.34 4 -3.68 4 -3 4 C-3 3.34 -3 2.68 -3 2 C-2.01 1.34 -1.02 0.68 0 0 Z " fill="#683A3A" transform="translate(132,116)"/>
<path d="M0 0 C1.98 0 3.96 0 6 0 C6 0.99 6 1.98 6 3 C4.02 3 2.04 3 0 3 C0 2.01 0 1.02 0 0 Z " fill="#1E3130" transform="translate(38,41)"/>
<path d="M0 0 C1.98 0 3.96 0 6 0 C6 0.99 6 1.98 6 3 C4.02 3 2.04 3 0 3 C0 2.01 0 1.02 0 0 Z " fill="#203230" transform="translate(130,41)"/>
</svg>
