<?xml version="1.0" encoding="UTF-8"?>
<svg version="1.1" xmlns="http://www.w3.org/2000/svg" width="1200" height="1200">
<path d="M0 0 C396 0 792 0 1200 0 C1200 396 1200 792 1200 1200 C804 1200 408 1200 0 1200 C0 804 0 408 0 0 Z " fill="#383838" transform="translate(0,0)"/>
<path d="M0 0 C0.97453125 0.27134766 1.9490625 0.54269531 2.953125 0.82226562 C4.51546875 1.2640918 4.51546875 1.2640918 6.109375 1.71484375 C7.20765625 2.02357422 8.3059375 2.33230469 9.4375 2.65039062 C18.38458877 5.18709363 27.2680126 7.90955987 36.14599609 10.67675781 C43.31041911 12.89906062 50.50102161 14.97941459 57.734375 16.96484375 C70.11011805 20.36319632 82.36821688 24.12503895 94.62646484 27.92114258 C95.75221672 28.26864563 95.75221672 28.26864563 96.90071106 28.62316895 C98.30194232 29.05594263 99.70261766 29.49052267 101.10258484 29.92736816 C105.65651238 31.33356754 110.22979855 32.5288038 114.859375 33.65234375 C114.48279974 39.78143073 113.71543277 45.75099609 112.55078125 51.78125 C112.2786409 53.20516224 112.00693315 54.6291572 111.7355957 56.05322266 C111.59239899 56.80202698 111.44920227 57.5508313 111.30166626 58.32232666 C109.86255915 65.90362991 108.49292742 73.49824706 107.109375 81.08984375 C106.93707367 82.03522003 106.76477234 82.98059631 106.58724976 83.95462036 C104.18991408 97.1287551 101.85643018 110.31237437 99.61038208 123.51315308 C99.17520183 126.0702951 98.73796841 128.6270801 98.30053711 131.18383789 C97.09452798 138.25174157 95.90129536 145.32033947 94.79109192 152.40400696 C94.46303593 154.49161844 94.12849773 156.57808174 93.79174805 158.66430664 C93.39087504 161.16253962 93.00339354 163.66297435 92.63208008 166.16577148 C92.45572021 167.25188721 92.27936035 168.33800293 92.09765625 169.45703125 C91.95368408 170.39530762 91.80971191 171.33358398 91.66137695 172.30029297 C90.6648885 175.22271907 89.50607197 176.13318324 86.859375 177.65234375 C86.199375 177.65234375 85.539375 177.65234375 84.859375 177.65234375 C84.859375 178.31234375 84.859375 178.97234375 84.859375 179.65234375 C82.59815593 181.30152619 80.33821256 182.83328684 77.984375 184.33984375 C76.58927337 185.25042881 75.19474191 186.16188801 73.80078125 187.07421875 C73.11902832 187.51830078 72.43727539 187.96238281 71.73486328 188.41992188 C69.43221711 189.93303798 67.17194738 191.49974114 64.921875 193.08984375 C60.71433979 196.05945951 56.47965972 198.98710283 52.234375 201.90234375 C51.55560303 202.36858154 50.87683105 202.83481934 50.17749023 203.31518555 C47.36413829 205.24711944 44.55021735 207.17822379 41.73632812 209.109375 C32.36652545 215.53218749 32.36652545 215.53218749 23.046875 222.02734375 C17.41920557 225.98192227 11.73600486 229.85550358 6.05102539 233.72705078 C2.31690824 236.27258659 -1.40674057 238.82707641 -5.08203125 241.45703125 C-5.96217896 242.08279053 -5.96217896 242.08279053 -6.86010742 242.72119141 C-8.40336717 243.82225182 -9.94022705 244.93226713 -11.4765625 246.04296875 C-14.1731457 247.67198968 -16.0035345 248.4634888 -19.140625 248.65234375 C-20.625625 247.66234375 -20.625625 247.66234375 -22.140625 246.65234375 C-22.140625 245.99234375 -22.140625 245.33234375 -22.140625 244.65234375 C-22.70265625 244.38421875 -23.2646875 244.11609375 -23.84375 243.83984375 C-26.29613146 242.57194585 -28.57990183 241.16262033 -30.890625 239.65234375 C-31.68984375 239.13671875 -32.4890625 238.62109375 -33.3125 238.08984375 C-33.91578125 237.61546875 -34.5190625 237.14109375 -35.140625 236.65234375 C-35.140625 235.99234375 -35.140625 235.33234375 -35.140625 234.65234375 C-36.1615625 234.31203125 -36.1615625 234.31203125 -37.203125 233.96484375 C-40.8394959 232.34008229 -44.16891763 230.32431118 -47.140625 227.65234375 C-47.140625 226.99234375 -47.140625 226.33234375 -47.140625 225.65234375 C-47.7078125 225.38550781 -48.275 225.11867188 -48.859375 224.84375 C-53.23463427 222.5587259 -57.14345905 219.53376961 -61.140625 216.65234375 C-61.94935059 216.07129883 -61.94935059 216.07129883 -62.77441406 215.47851562 C-64.44425317 214.2737562 -66.10598787 213.05860886 -67.765625 211.83984375 C-68.78914062 211.09089844 -69.81265625 210.34195313 -70.8671875 209.5703125 C-71.61742187 208.93738281 -72.36765625 208.30445313 -73.140625 207.65234375 C-73.140625 206.99234375 -73.140625 206.33234375 -73.140625 205.65234375 C-73.79933594 205.44738281 -74.45804688 205.24242187 -75.13671875 205.03125 C-79.29627232 203.12185805 -82.6189172 200.41017776 -86.203125 197.58984375 C-87.72746334 196.40573329 -89.25220477 195.22214156 -90.77734375 194.0390625 C-91.89375244 193.16967041 -91.89375244 193.16967041 -93.03271484 192.28271484 C-95.83264632 190.11709724 -98.6709388 188.00882829 -101.515625 185.90234375 C-102.38794769 185.23692566 -103.26027039 184.57150757 -104.1590271 183.88592529 C-106.07204457 182.4528412 -108.0185949 181.06288698 -110.00308228 179.73052979 C-115.31348095 175.92670413 -118.67597483 173.06844492 -120.04443359 166.52636719 C-120.34235309 164.19396355 -120.58796547 161.85445705 -120.7890625 159.51171875 C-120.93753128 158.24828644 -121.08600006 156.98485413 -121.2389679 155.68313599 C-121.63718514 152.29395603 -121.97676008 148.90130574 -122.30550766 145.50478363 C-122.65884883 141.96924212 -123.06916741 138.44038141 -123.47583008 134.91064453 C-124.11295187 129.33825128 -124.72476221 123.76376203 -125.31787109 118.18652344 C-126.23359386 109.66379975 -127.33290702 101.17395763 -128.52560425 92.68615723 C-128.82545765 90.54637819 -129.11819691 88.40574963 -129.40844727 86.26464844 C-130.43397667 78.70569999 -131.49034718 71.15122738 -132.5546875 63.59765625 C-132.79079996 61.91683343 -133.02688425 60.23600665 -133.26293945 58.55517578 C-133.71027758 55.37062443 -134.16248639 52.1868206 -134.61791992 49.00341797 C-134.81964062 47.57391325 -135.0212268 46.14438954 -135.22265625 44.71484375 C-135.48912964 42.84505859 -135.48912964 42.84505859 -135.76098633 40.9375 C-136.08524934 38.13153018 -136.21919538 35.47151569 -136.140625 32.65234375 C-129.31906974 30.26963739 -122.52057968 28.17851978 -115.49609375 26.48828125 C-111.5840798 25.51369337 -107.70837648 24.43285435 -103.828125 23.33984375 C-96.76685521 21.35445296 -89.68096377 19.48308698 -82.578125 17.65234375 C-75.38577934 15.7944189 -68.24388184 13.83842055 -61.13354492 11.68969727 C-52.50948644 9.1153666 -43.79173072 6.87227616 -35.08569336 4.59423828 C-27.98028707 2.72333651 -20.99743391 0.6943745 -14.05175781 -1.70874023 C-9.13513963 -2.7878068 -4.75614485 -1.32600742 0 0 Z " fill="#F34C4C" transform="translate(628.140625,452.34765625)"/>
<path d="M0 0 C-0.37657526 6.12908698 -1.14394223 12.09865234 -2.30859375 18.12890625 C-2.5807341 19.55281849 -2.85244185 20.97681345 -3.1237793 22.40087891 C-3.26697601 23.14968323 -3.41017273 23.89848755 -3.55770874 24.66998291 C-4.99681585 32.25128616 -6.36644758 39.84590331 -7.75 47.4375 C-7.92230133 48.38287628 -8.09460266 49.32825256 -8.27212524 50.30227661 C-10.66946092 63.47641135 -13.00294482 76.66003062 -15.24899292 89.86080933 C-15.68417317 92.41795135 -16.12140659 94.97473635 -16.55883789 97.53149414 C-17.76484702 104.59939782 -18.95807964 111.66799572 -20.06828308 118.75166321 C-20.39633907 120.83927469 -20.73087727 122.92573799 -21.06762695 125.01196289 C-21.46849996 127.51019587 -21.85598146 130.0106306 -22.22729492 132.51342773 C-22.40365479 133.59954346 -22.58001465 134.68565918 -22.76171875 135.8046875 C-22.90569092 136.74296387 -23.04966309 137.68124023 -23.19799805 138.64794922 C-24.1944865 141.57037532 -25.35330303 142.48083949 -28 144 C-28.66 144 -29.32 144 -30 144 C-30 144.66 -30 145.32 -30 146 C-32.26121907 147.64918244 -34.52116244 149.18094309 -36.875 150.6875 C-38.27010163 151.59808506 -39.66463309 152.50954426 -41.05859375 153.421875 C-41.74034668 153.86595703 -42.42209961 154.31003906 -43.12451172 154.76757812 C-45.42715789 156.28069423 -47.68742762 157.84739739 -49.9375 159.4375 C-54.14503521 162.40711576 -58.37971528 165.33475908 -62.625 168.25 C-63.30377197 168.71623779 -63.98254395 169.18247559 -64.68188477 169.6628418 C-67.49523671 171.59477569 -70.30915765 173.52588004 -73.12304688 175.45703125 C-82.49284955 181.87984374 -82.49284955 181.87984374 -91.8125 188.375 C-97.4392165 192.32890889 -103.1231267 196.19916297 -108.80395508 200.07470703 C-112.55254816 202.63365353 -116.295929 205.19827129 -120.01171875 207.8046875 C-120.90540161 208.43044678 -120.90540161 208.43044678 -121.81713867 209.06884766 C-123.39056156 210.17318828 -124.96101904 211.28175056 -126.53125 212.390625 C-129 214 -129 214 -132 215 C-132.32673085 177.79792303 -131.7598927 140.63116684 -131 103.4375 C-130.96412655 101.68114353 -130.96412655 101.68114353 -130.92752838 99.88930511 C-130.62783353 85.25933215 -130.31839178 70.62957756 -130 56 C-121.96967068 52.22830106 -113.94395475 48.46278191 -105.79296875 44.95703125 C-105.01665604 44.62128586 -104.24034332 44.28554047 -103.44050598 43.93962097 C-101.83066022 43.24394302 -100.22036698 42.54929964 -98.60961914 41.85571289 C-96.1715072 40.80561186 -93.73507679 39.75168126 -91.29882812 38.69726562 C-84.20064864 35.63065437 -77.10064851 32.59484742 -69.90454102 29.76342773 C-67.51685268 28.80633231 -65.19551693 27.73412843 -62.875 26.625 C-58.5432224 24.62441545 -54.14429113 22.91257573 -49.6640625 21.28125 C-41.83910629 18.38693406 -34.18973618 15.15841531 -26.56054688 11.78564453 C-24.47479764 10.86386199 -22.38608506 9.94906418 -20.296875 9.03515625 C-14.72220194 6.58840256 -5.7953181 0 0 0 Z " fill="#C14041" transform="translate(743,486)"/>
<path d="M0 0 C0.97453125 0.27134766 1.9490625 0.54269531 2.953125 0.82226562 C4.51546875 1.2640918 4.51546875 1.2640918 6.109375 1.71484375 C7.20765625 2.02357422 8.3059375 2.33230469 9.4375 2.65039062 C18.38458877 5.18709363 27.2680126 7.90955987 36.14599609 10.67675781 C43.3104247 12.89906236 50.50106037 14.97926278 57.734375 16.96484375 C70.13633709 20.3729005 82.42377911 24.13529347 94.71435547 27.92114258 C95.46666443 28.15281128 96.21897339 28.38447998 96.99407959 28.62316895 C98.40161392 29.05703652 99.80890125 29.49170663 101.21588135 29.92736816 C105.41616451 31.22421335 109.62919456 32.45783928 113.859375 33.65234375 C111.31002178 36.65569893 108.53395727 37.8466195 104.93359375 39.359375 C103.74314453 39.86404297 102.55269531 40.36871094 101.32617188 40.88867188 C100.06649819 41.4142829 98.80673228 41.93967295 97.546875 42.46484375 C96.34224609 42.97337891 95.13761719 43.48191406 93.89648438 44.00585938 C91.45527261 45.03641908 89.01279703 46.06398998 86.5690918 47.08862305 C84.04697524 48.14824998 81.53082827 49.22063265 79.01879883 50.30395508 C78.08201042 50.70785713 78.08201042 50.70785713 77.126297 51.11991882 C75.40392646 51.86391428 73.68240343 52.60987087 71.9609375 53.35595703 C69.05719824 54.56965787 66.13967072 55.66919983 63.171875 56.71484375 C58.63096716 58.32335775 54.29156345 60.21417457 49.92675781 62.24853516 C46.83719009 63.66249682 43.72717693 65.01146329 40.6015625 66.34375 C39.35922278 66.87418308 38.1169574 67.40479029 36.87475586 67.93554688 C36.22207733 68.21430664 35.5693988 68.49306641 34.89694214 68.78027344 C32.09256553 69.98053503 29.29141479 71.18822362 26.4903717 72.39624023 C23.51558983 73.67895212 20.53966936 74.95901154 17.5637207 76.23901367 C16.05032931 76.89049729 14.53730905 77.5428437 13.0246582 78.19604492 C8.65208726 80.08373994 4.27342744 81.95546101 -0.11764526 83.79974365 C-1.44306828 84.3583532 -2.7665055 84.92170358 -4.087677 85.49029541 C-5.86172225 86.25135007 -7.6454931 86.98961536 -9.4296875 87.7265625 C-10.42307129 88.14381592 -11.41645508 88.56106934 -12.43994141 88.9909668 C-15.66113003 89.77981149 -17.01986134 89.35644583 -19.953125 87.90234375 C-20.75105469 87.39832031 -21.54898438 86.89429688 -22.37109375 86.375 C-25.68938711 84.31101217 -29.17191611 82.84134549 -32.765625 81.33984375 C-38.40928017 78.92084785 -43.92007807 76.31483338 -49.390625 73.52734375 C-54.86507344 70.74035182 -60.36925402 68.23265821 -66.0703125 65.93359375 C-70.36773509 64.14026728 -74.56776555 62.1558055 -78.77880859 60.16992188 C-82.11079541 58.59889482 -85.44986237 57.05865359 -88.828125 55.58984375 C-92.01088375 54.19082892 -95.10622431 52.66971193 -98.203125 51.08984375 C-104.54547955 47.88580453 -110.99299061 44.92308683 -117.453125 41.96484375 C-119.01075562 41.25122681 -119.01075562 41.25122681 -120.59985352 40.52319336 C-125.75501284 38.17019366 -130.91911771 35.85436164 -136.140625 33.65234375 C-133.89887072 31.41058947 -132.7779403 31.11086248 -129.765625 30.3203125 C-128.87238525 30.08183594 -127.97914551 29.84335937 -127.05883789 29.59765625 C-126.09582764 29.34757812 -125.13281738 29.0975 -124.140625 28.83984375 C-122.11836794 28.30254094 -120.09623398 27.76477466 -118.07421875 27.2265625 C-116.56190674 26.82703369 -116.56190674 26.82703369 -115.01904297 26.41943359 C-111.06991518 25.36700276 -107.13673289 24.261058 -103.203125 23.15234375 C-96.35001652 21.2318607 -89.46935165 19.43068844 -82.578125 17.65234375 C-75.38583552 15.79418909 -68.24388997 13.83842301 -61.13354492 11.68969727 C-52.50948644 9.1153666 -43.79173072 6.87227616 -35.08569336 4.59423828 C-27.98028707 2.72333651 -20.99743391 0.6943745 -14.05175781 -1.70874023 C-9.13513963 -2.7878068 -4.75614485 -1.32600742 0 0 Z " fill="#FE6269" transform="translate(628.140625,452.34765625)"/>
</svg>
